<?xml version="1.0" encoding="UTF-8" standalone="no"?>
<svg
   xmlns:dc="http://purl.org/dc/elements/1.1/"
   xmlns:cc="http://creativecommons.org/ns#"
   xmlns:rdf="http://www.w3.org/1999/02/22-rdf-syntax-ns#"
   xmlns:svg="http://www.w3.org/2000/svg"
   xmlns="http://www.w3.org/2000/svg"
   xmlns:sodipodi="http://sodipodi.sourceforge.net/DTD/sodipodi-0.dtd"
   xmlns:inkscape="http://www.inkscape.org/namespaces/inkscape"
   role="img"
   viewBox="0 0 24 24"
   version="1.1"
   id="svg260"
   sodipodi:docname="emby.svg"
   inkscape:version="1.0.2 (e86c8708, 2021-01-15)">
  <metadata
     id="metadata266">
    <rdf:RDF>
      <cc:Work
         rdf:about="">
        <dc:format>image/svg+xml</dc:format>
        <dc:type
           rdf:resource="http://purl.org/dc/dcmitype/StillImage" />
      </cc:Work>
    </rdf:RDF>
  </metadata>
  <defs
     id="defs264" />
  <sodipodi:namedview
     pagecolor="#ffffff"
     bordercolor="#666666"
     borderopacity="1"
     objecttolerance="10"
     gridtolerance="10"
     guidetolerance="10"
     inkscape:pageopacity="0"
     inkscape:pageshadow="2"
     inkscape:window-width="1206"
     inkscape:window-height="796"
     id="namedview262"
     showgrid="false"
     inkscape:zoom="46.439165"
     inkscape:cx="8.0795435"
     inkscape:cy="12.943171"
     inkscape:window-x="0"
     inkscape:window-y="25"
     inkscape:window-maximized="0"
     inkscape:current-layer="svg260" />
  <title
     id="title256">Emby</title>
  <path
     d="M 11.041,0 C 11.034,0 9.585,1.43 7.822,3.176 L 4.615,6.352 5.127,6.865 5.639,7.377 2.82,10.168 0,12.961 1.83,14.809 c 1.006,1.016 2.438,2.46 3.182,3.209 l 1.351,1.359 0.508,-0.496 c 0.28,-0.273 0.515,-0.498 0.524,-0.498 0.008,0 1.266,1.264 2.794,2.808 L 12.97,24 13.157,23.818 c 0.23,-0.225 5.007,-4.95 5.717,-5.656 l 0.52,-0.516 -0.502,-0.513 c -0.276,-0.282 -0.5,-0.52 -0.496,-0.53 0.003,-0.009 1.264,-1.26 2.802,-2.783 1.538,-1.522 2.8,-2.776 2.803,-2.785 0.005,-0.012 -3.617,-3.684 -6.107,-6.193 L 17.65,4.6 17.145,5.105 C 16.866,5.383 16.628,5.606 16.615,5.602 16.602,5.597 15.345,4.335 13.822,2.797 12.899094,1.8606054 11.972085,0.92826313 11.041,0 Z M 9.223,7.367 c 0.091171,0.037588 7.957,4.627 7.957,4.627 0.003,0.013 -1.781,1.056 -3.965,2.32 -1.330224,0.772072 -2.662227,1.541074 -3.996,2.307 -0.019,0.006 -0.026,-1.266 -0.026,-4.629 0,-3.7 0.00717,-4.6344139 0.03,-4.625 z"
     id="path258"
     style="fill:#52b54b;fill-opacity:1"
     sodipodi:nodetypes="cccccccccccscccccccccccccccscccss" />
  <path
     d="M 11.041,0 C 11.034,0 9.585,1.43 7.822,3.176 L 4.615,6.352 5.127,6.865 5.639,7.377 2.82,10.168 0,12.961 1.83,14.809 c 1.006,1.016 2.438,2.46 3.182,3.209 l 1.351,1.359 0.508,-0.496 c 0.28,-0.273 0.515,-0.498 0.524,-0.498 0.008,0 1.266,1.264 2.794,2.808 L 12.97,24 13.157,23.818 c 0.23,-0.225 5.007,-4.95 5.717,-5.656 l 0.52,-0.516 -0.502,-0.513 c -0.276,-0.282 -0.5,-0.52 -0.496,-0.53 0.003,-0.009 1.264,-1.26 2.802,-2.783 1.538,-1.522 2.8,-2.776 2.803,-2.785 0.005,-0.012 -3.617,-3.684 -6.107,-6.193 L 17.65,4.6 17.145,5.105 C 16.866,5.383 16.628,5.606 16.615,5.602 16.602,5.597 15.345,4.335 13.822,2.797 12.899094,1.8606054 11.972085,0.92826313 11.041,0 Z M 9.223,7.367 c 0.091171,0.037588 7.957,4.627 7.957,4.627 0.003,0.013 -1.781,1.056 -3.965,2.32 -1.330224,0.772072 -2.662227,1.541074 -3.996,2.307 -0.019,0.006 -0.026,-1.266 -0.026,-4.629 0,-3.7 0.00717,-4.6344139 0.03,-4.625 z"
     id="path258-1"
     style="fill:#52b54b;fill-opacity:1"
     sodipodi:nodetypes="cccccccccccscccccccccccccccscccss" />
  <path
     class="cls-3"
     d="M 9.219,16.621 9.223,7.367 17.18,11.994 Z"
     id="path3540"
     style="fill:#ffffff"
     sodipodi:nodetypes="cccc" />
</svg>
